<?xml version="1.0" encoding="UTF-8" standalone="no"?>
<svg
   version="1.1"
   viewBox="0 0 16 16"
   id="svg2"
   sodipodi:docname="icon-share-dark.svg"
   inkscape:version="1.3.2 (091e20e, 2023-11-25)"
   width="16"
   height="16"
   xmlns:inkscape="http://www.inkscape.org/namespaces/inkscape"
   xmlns:sodipodi="http://sodipodi.sourceforge.net/DTD/sodipodi-0.dtd"
   xmlns="http://www.w3.org/2000/svg"
   xmlns:svg="http://www.w3.org/2000/svg">
  <defs
     id="defs2" />
  <sodipodi:namedview
     id="namedview2"
     pagecolor="#ffffff"
     bordercolor="#000000"
     borderopacity="0.25"
     inkscape:showpageshadow="2"
     inkscape:pageopacity="0.0"
     inkscape:pagecheckerboard="0"
     inkscape:deskcolor="#d1d1d1"
     inkscape:zoom="20.611307"
     inkscape:cx="5.2883596"
     inkscape:cy="10.06729"
     inkscape:window-width="1392"
     inkscape:window-height="1184"
     inkscape:window-x="0"
     inkscape:window-y="0"
     inkscape:window-maximized="0"
     inkscape:current-layer="svg2" />
  <g
     transform="matrix(0.00517968,0,0,-0.00517968,-4.1297758,39.515753)"
     fill="#000000"
     stroke="none"
     id="g2"
     style="display:inline;fill:#ffffff">
    <path
       d="m 2295,7618 c -51,-28 -514,-485 -521,-515 -16,-64 33,-123 104,-123 49,0 22,-24 307,278 l 50,53 -3,-815 -2,-815 28,-32 c 21,-24 38,-32 73,-36 41,-5 50,-2 82,27 l 37,32 2,816 3,815 140,-150 c 77,-83 150,-155 163,-162 59,-29 136,4 148,65 4,23 2,46 -7,65 -15,32 -456,460 -504,490 -34,21 -70,24 -100,7 z"
       id="path1-2"
       style="fill:#ffffff" />
    <path
       d="m 1414,6735 c -126,-27 -211,-92 -261,-200 l -28,-60 v -825 c 0,-897 -2,-868 58,-956 43,-65 104,-109 183,-134 64,-19 90,-20 968,-20 720,0 911,3 951,14 150,40 239,139 265,296 7,44 10,312 8,830 -3,697 -5,770 -21,817 -38,113 -118,193 -230,230 -42,13 -104,17 -329,21 l -278,4 v -116 -116 h 239 239 l 52,-28 c 38,-19 59,-38 74,-67 21,-40 21,-48 21,-785 0,-690 -1,-747 -17,-777 -26,-48 -78,-82 -141,-93 -36,-7 -342,-10 -869,-8 l -813,3 -45,25 c -33,18 -52,38 -70,75 l -25,50 v 725 c 0,573 3,733 13,762 16,46 69,94 119,107 22,6 139,11 271,11 h 232 v 115 115 l -252,-1 c -170,0 -273,-5 -314,-14 z"
       id="path2-4"
       style="fill:#ffffff" />
  </g>
</svg>
