<?xml version="1.0" encoding="UTF-8" standalone="no"?>
<!-- Created with Inkscape (http://www.inkscape.org/) -->

<svg
   width="511.99997"
   height="511.99997"
   viewBox="0 0 135.46666 135.46666"
   version="1.1"
   id="svg1"
   xml:space="preserve"
   inkscape:version="1.3.2 (091e20e, 2023-11-25)"
   sodipodi:docname="icon.svg"
   inkscape:export-filename="icon-512.png"
   inkscape:export-xdpi="96.000008"
   inkscape:export-ydpi="96.000008"
   xmlns:inkscape="http://www.inkscape.org/namespaces/inkscape"
   xmlns:sodipodi="http://sodipodi.sourceforge.net/DTD/sodipodi-0.dtd"
   xmlns="http://www.w3.org/2000/svg"
   xmlns:svg="http://www.w3.org/2000/svg"><sodipodi:namedview
     id="namedview1"
     pagecolor="#ffffff"
     bordercolor="#000000"
     borderopacity="0.25"
     inkscape:showpageshadow="false"
     inkscape:pageopacity="0.0"
     inkscape:pagecheckerboard="0"
     inkscape:deskcolor="#d1d1d1"
     inkscape:document-units="px"
     showborder="true"
     borderlayer="false"
     inkscape:zoom="2.2323055"
     inkscape:cx="110.64794"
     inkscape:cy="250.63774"
     inkscape:window-width="3440"
     inkscape:window-height="1384"
     inkscape:window-x="0"
     inkscape:window-y="0"
     inkscape:window-maximized="0"
     inkscape:current-layer="svg1"
     showguides="true" /><defs
     id="defs1"><linearGradient
       id="linearGradient730"
       x1="68.037544"
       y1="8.3417664"
       x2="67.430557"
       y2="126.69706"
       gradientUnits="userSpaceOnUse"
       gradientTransform="matrix(0.95555547,0,0,0.95555547,3.0103728,3.0103704)"><stop
         id="stop723"
         offset="0%"
         stop-color="red" /><stop
         id="stop724"
         offset="14.29%"
         stop-color="orange" /><stop
         id="stop725"
         offset="28.57%"
         stop-color="yellow" /><stop
         id="stop726"
         offset="42.86%"
         stop-color="green" /><stop
         id="stop727"
         offset="57.14%"
         stop-color="blue" /><stop
         id="stop728"
         offset="71.43%"
         stop-color="indigo" /><stop
         id="stop729"
         offset="85.87%"
         stop-color="violet" /><stop
         id="stop730"
         offset="100%"
         stop-color="red" /></linearGradient><filter
       style="color-interpolation-filters:sRGB;"
       inkscape:label="Drop Shadow"
       id="filter14"
       x="-0.035448522"
       y="-0.03543307"
       width="1.070897"
       height="1.0708661"><feFlood
         result="flood"
         in="SourceGraphic"
         flood-opacity="1.000000"
         flood-color="rgb(0,0,0)"
         id="feFlood13" /><feGaussianBlur
         result="blur"
         in="SourceGraphic"
         stdDeviation="2.000000"
         id="feGaussianBlur13" /><feOffset
         result="offset"
         in="blur"
         dx="0.000000"
         dy="-0.000000"
         id="feOffset13" /><feComposite
         result="comp1"
         operator="in"
         in="flood"
         in2="offset"
         id="feComposite13" /><feComposite
         result="comp2"
         operator="over"
         in="SourceGraphic"
         in2="comp1"
         id="feComposite14" /></filter></defs><g
     id="g1"
     transform="matrix(0.92727805,0,0,0.92727805,4.9256984,4.9257011)"><circle
       id="path2"
       cx="67.73333"
       cy="67.73333"
       r="56.885418"
       style="display:inline;fill:url(#linearGradient730);fill-opacity:1;stroke:none;stroke-width:0.393953;stroke-linecap:round" /><path
       d="M 59.319726,0.32087937 C 30.45575,3.9470071 7.4419261,25.365335 1.1082903,54.374356 -0.24546432,60.659643 -0.34216102,73.858749 0.91489648,80.33743 2.7037866,89.52362 6.3782625,98.419729 11.599885,106.20381 c 3.190993,4.73815 10.588293,12.37718 15.664872,16.1967 7.542345,5.65676 18.469077,10.53995 27.848661,12.37719 4.544747,0.91862 20.596405,0.91862 25.141151,0 27.075081,-5.31833 47.961581,-25.72133 54.005131,-52.796425 1.45045,-6.672076 1.59549,-20.596405 0.24174,-27.026739 C 131.45549,40.691768 125.55699,29.861732 115.35549,19.660227 105.39572,9.7488112 94.75908,3.9953555 81.318234,1.2394985 75.661475,0.07913757 64.783092,-0.35599783 59.319726,0.32087937 Z M 78.755771,12.649714 c 12.377182,2.562463 24.222539,9.621325 32.103319,19.097605 14.26276,17.21202 17.11533,40.806024 7.34895,60.725551 -3.09431,6.333639 -6.96217,11.50692 -12.42554,16.63185 -4.97987,4.64144 -7.252238,6.23693 -7.639037,5.22162 -0.09667,-0.33844 -2.078976,-9.33124 -4.35135,-19.919535 -2.272374,-10.636641 -4.44805,-19.822831 -4.883186,-20.45136 -0.87027,-1.353754 -3.481081,-3.045948 -4.641442,-3.045948 -0.62853,0 -2.030632,-3.722824 -6.478681,-17.018625 -3.964567,-11.893699 -5.995199,-17.357064 -6.768772,-18.130638 -1.498799,-1.4988 -4.738141,-1.547148 -6.333637,-0.0967 -0.773574,0.773574 -2.707509,5.94685 -6.768772,18.130638 -4.834836,14.456163 -5.850153,17.115322 -6.623726,17.115322 -1.450452,0 -3.916218,1.78889 -4.786489,3.481084 -0.483483,0.87027 -2.659159,10.298203 -4.931534,20.886495 -2.272373,10.588307 -4.206308,19.387697 -4.303005,19.484407 -0.483483,0.48347 -5.124926,-3.191 -9.234538,-7.30061 C 13.678866,93.004703 8.2638479,72.746736 13.53382,53.06895 19.335624,31.408881 38.43323,14.82539 60.915221,11.924488 c 4.399702,-0.531832 13.392499,-0.193394 17.84055,0.725226 z m 2.707508,67.059187 c 0,0.0967 1.933935,9.089494 4.254656,20.064568 l 4.254657,19.919531 -2.659161,1.01533 c -8.219222,2.99758 -18.469077,4.1096 -27.220131,2.90089 -4.061263,-0.53184 -12.280485,-2.8042 -13.779285,-3.77117 -0.483484,-0.29009 0.435135,-5.17328 3.626127,-20.306321 l 4.206307,-19.919526 h 13.68259 c 7.493997,0 13.63424,0.04834 13.63424,0.0967 z"
       id="path1"
       style="display:inline;fill:#ffffff;fill-opacity:1;stroke-width:0.0483485;filter:url(#filter14)" /></g></svg>
