<?xml version="1.0" encoding="UTF-8" standalone="no"?>
<!-- Created with Inkscape (http://www.inkscape.org/) -->

<svg
   width="511.99997"
   height="511.99997"
   viewBox="0 0 135.46666 135.46666"
   version="1.1"
   id="svg1"
   xml:space="preserve"
   inkscape:version="1.3.2 (091e20e, 2023-11-25)"
   sodipodi:docname="icon.svg"
   inkscape:export-filename="icon-512.png"
   inkscape:export-xdpi="96.000008"
   inkscape:export-ydpi="96.000008"
   xmlns:inkscape="http://www.inkscape.org/namespaces/inkscape"
   xmlns:sodipodi="http://sodipodi.sourceforge.net/DTD/sodipodi-0.dtd"
   xmlns="http://www.w3.org/2000/svg"
   xmlns:svg="http://www.w3.org/2000/svg"><sodipodi:namedview
     id="namedview1"
     pagecolor="#ffffff"
     bordercolor="#000000"
     borderopacity="0.25"
     inkscape:showpageshadow="false"
     inkscape:pageopacity="0.0"
     inkscape:pagecheckerboard="0"
     inkscape:deskcolor="#d1d1d1"
     inkscape:document-units="px"
     showborder="true"
     borderlayer="false"
     inkscape:zoom="1.9049119"
     inkscape:cx="385.31966"
     inkscape:cy="251.71768"
     inkscape:window-width="3440"
     inkscape:window-height="1384"
     inkscape:window-x="0"
     inkscape:window-y="0"
     inkscape:window-maximized="1"
     inkscape:current-layer="svg1"
     showguides="true" /><defs
     id="defs1"><linearGradient
       id="linearGradient730"
       x1="68.037544"
       y1="8.3417664"
       x2="67.430557"
       y2="126.69706"
       gradientUnits="userSpaceOnUse"><stop
         id="stop723"
         offset="0%"
         stop-color="red" /><stop
         id="stop724"
         offset="14.29%"
         stop-color="orange" /><stop
         id="stop725"
         offset="28.57%"
         stop-color="yellow" /><stop
         id="stop726"
         offset="42.86%"
         stop-color="green" /><stop
         id="stop727"
         offset="57.14%"
         stop-color="blue" /><stop
         id="stop728"
         offset="71.43%"
         stop-color="indigo" /><stop
         id="stop729"
         offset="85.87%"
         stop-color="violet" /><stop
         id="stop730"
         offset="100%"
         stop-color="red" /></linearGradient></defs><circle
     id="path2"
     cx="67.73333"
     cy="67.73333"
     r="59.53125"
     style="fill:url(#linearGradient730);stroke:none;stroke-width:0.412277;stroke-linecap:round;fill-opacity:1" /><g
     transform="matrix(0.04485445,0,0,-0.04485445,-40.635937,337.56395)"
     stroke="none"
     id="g2"
     style="fill:url(#linearGradient730)"><path
       d="m 2242,7410 c -597,-75 -1073,-518 -1204,-1118 -28,-130 -30,-403 -4,-537 37,-190 113,-374 221,-535 66,-98 219,-256 324,-335 156,-117 382,-218 576,-256 94,-19 426,-19 520,0 560,110 992,532 1117,1092 30,138 33,426 5,559 -63,295 -185,519 -396,730 -206,205 -426,324 -704,381 -117,24 -342,33 -455,19 z m 402,-255 c 256,-53 501,-199 664,-395 295,-356 354,-844 152,-1256 -64,-131 -144,-238 -257,-344 -103,-96 -150,-129 -158,-108 -2,7 -43,193 -90,412 -47,220 -92,410 -101,423 -18,28 -72,63 -96,63 -13,0 -42,77 -134,352 -82,246 -124,359 -140,375 -31,31 -98,32 -131,2 -16,-16 -56,-123 -140,-375 -100,-299 -121,-354 -137,-354 -30,0 -81,-37 -99,-72 -10,-18 -55,-213 -102,-432 -47,-219 -87,-401 -89,-403 -10,-10 -106,66 -191,151 -297,299 -409,718 -300,1125 120,448 515,791 980,851 91,11 277,4 369,-15 z m 56,-1387 c 0,-2 40,-188 88,-415 l 88,-412 -55,-21 c -170,-62 -382,-85 -563,-60 -84,11 -254,58 -285,78 -10,6 9,107 75,420 l 87,412 h 283 c 155,0 282,-1 282,-2 z"
       id="path1"
       style="fill:#ffffff;fill-opacity:1" /></g></svg>
