<?xml version="1.0" encoding="UTF-8" standalone="no"?>
<svg
   version="1.1"
   viewBox="0 0 15.9375 15.9453"
   id="svg2"
   sodipodi:docname="toolbar-icon.svg"
   inkscape:version="1.3.2 (091e20e, 2023-11-25)"
   xmlns:inkscape="http://www.inkscape.org/namespaces/inkscape"
   xmlns:sodipodi="http://sodipodi.sourceforge.net/DTD/sodipodi-0.dtd"
   xmlns="http://www.w3.org/2000/svg"
   xmlns:svg="http://www.w3.org/2000/svg">
  <defs
     id="defs2" />
  <sodipodi:namedview
     id="namedview2"
     pagecolor="#ffffff"
     bordercolor="#000000"
     borderopacity="0.25"
     inkscape:showpageshadow="2"
     inkscape:pageopacity="0.0"
     inkscape:pagecheckerboard="0"
     inkscape:deskcolor="#d1d1d1"
     inkscape:zoom="53.577184"
     inkscape:cx="11.310785"
     inkscape:cy="8.6883998"
     inkscape:window-width="3440"
     inkscape:window-height="1384"
     inkscape:window-x="0"
     inkscape:window-y="0"
     inkscape:window-maximized="0"
     inkscape:current-layer="svg2" />
  <path
     d="M 7.0371256,0.50818106 C 3.8410651,0.90969619 1.2927824,3.2813123 0.59146927,6.4934333 0.44157028,7.1893929 0.43086321,8.650908 0.57005512,9.3682817 0.76813593,10.385453 1.1750046,11.370504 1.7531864,12.232423 c 0.3533333,0.524646 1.1724242,1.370505 1.7345454,1.793434 0.8351515,0.626364 2.0450504,1.167071 3.0836362,1.370505 0.5032323,0.101717 2.280606,0.101717 2.7838383,0 2.9979797,-0.588889 5.3107077,-2.848081 5.9798987,-5.8460601 0.160607,-0.7387878 0.176667,-2.280606 0.02677,-2.9926261 C 15.0246,4.9783829 14.371469,3.779191 13.241873,2.6495951 12.139045,1.5521204 10.961267,0.91504973 9.4729841,0.60989822 8.8466205,0.48141338 7.6420751,0.43323156 7.0371256,0.50818106 Z M 9.1892467,1.8733325 c 1.3705053,0.2837374 2.6821213,1.0653535 3.5547473,2.1146464 1.579293,1.9058585 1.895152,4.5183837 0.813738,6.7240401 -0.342626,0.701313 -0.770909,1.274141 -1.375859,1.841616 -0.551414,0.513939 -0.80303,0.690606 -0.845858,0.578182 -0.01071,-0.03748 -0.230202,-1.033233 -0.481818,-2.205657 C 10.60258,9.7483827 10.361671,8.731211 10.313489,8.6616151 10.217125,8.5117161 9.9280346,8.3243424 9.7995497,8.3243424 9.7299538,8.3243424 9.5747013,7.9121202 9.082176,6.439898 8.6431861,5.1229283 8.4183377,4.5179789 8.3326811,4.4323223 8.1667215,4.2663627 7.8080347,4.2610092 7.631368,4.4216152 7.5457114,4.5072718 7.33157,5.0801001 6.8818731,6.4291909 6.3465196,8.0298979 6.2340953,8.3243424 6.1484388,8.3243424 c -0.1606061,0 -0.4336364,0.1980808 -0.53,0.3854545 C 5.5649034,8.8061605 5.3239944,9.8500999 5.0723782,11.022524 4.8207621,12.194948 4.6066206,13.169291 4.5959136,13.179999 4.5423782,13.233534 4.0284389,12.826665 3.5733884,12.371615 1.9833884,10.770908 1.3837925,8.5277767 1.9673278,6.3488879 2.609752,3.9505042 4.7243984,2.1142416 7.2137923,1.7930295 7.700964,1.7341406 8.6967215,1.7716153 9.1892467,1.8733325 Z m 0.299798,7.4253533 c 0,0.010707 0.2141414,1.0064642 0.4711111,2.2217172 l 0.4711112,2.205656 -0.294445,0.112424 C 9.2267215,14.170403 8.091772,14.293534 7.1227822,14.159695 6.6730852,14.100805 5.7629842,13.84919 5.5970246,13.74212 5.5434896,13.71 5.6452066,13.169291 5.9985398,11.493635 L 6.4642973,9.2879787 h 1.5150505 c 0.8297979,0 1.5096969,0.00535 1.5096969,0.010707 z"
     id="path1-0"
     style="stroke-width:0.00535354" />
</svg>
